{"title":"\nBhoomi 2017 Hindi Movies HD TS XviD Clean Audio New +Sample ☻rDX","magnet":"magnet:?xt=urn:btih:30d4b49d472ae1a09563aa6653b6cea1c9796188&dn=Bhoomi+2017+Hindi+Movies+HD+TS+XviD+Clean+Audio+New+%2BSample+%E2%98%BBrDX&tr=udp%3A%2F%2Ftracker.leechers-paradise.org%3A6969&tr=udp%3A%2F%2Fzer0day.ch%3A1337&tr=udp%3A%2F%2Fopen.demonii.com%3A1337&tr=udp%3A%2F%2Ftracker.coppersurfer.tk%3A6969&tr=udp%3A%2F%2Fexodus.desync.com%3A6969","uploader":"basicssom","categoryP":"video","categoryS":"movies","size":"740641270","seeders":"1","leechers":"490","description":"----------------------------------------------------------------\r\nBhoomi 2017 Hindi Movies HD TS XviD Clean Audio AAC New Source with Sample &#x263B;rDX&#x263B;\r\n\r\nSCREEN SHOTS &amp; POSTER:\r\n   <a href=\"\nhttp://postimage.co.nr/2017/9/data/index.html\" rel=\"nofollow\" target=\"_NEW\">\nhttp://postimage.co.nr/2017/9/data/index.html</a>  <a href=\"\nhttp://postimage.co.nr/2017/9/data/1.html\" rel=\"nofollow\" target=\"_NEW\">\nhttp://postimage.co.nr/2017/9/data/1.html</a>   <a href=\"\nhttp://postimage.co.nr/2017/9/data/2.html\" rel=\"nofollow\" target=\"_NEW\">\nhttp://postimage.co.nr/2017/9/data/2.html</a>   <a href=\"\nhttp://postimage.co.nr/2017/9/data/3.html\" rel=\"nofollow\" target=\"_NEW\">\nhttp://postimage.co.nr/2017/9/data/3.html</a>   <a href=\"\nhttp://postimage.co.nr/2017/9/data/4.html\" rel=\"nofollow\" target=\"_NEW\">\nhttp://postimage.co.nr/2017/9/data/4.html</a>   <a href=\"\nhttp://postimage.co.nr/2017/9/data/5.html\" rel=\"nofollow\" target=\"_NEW\">\nhttp://postimage.co.nr/2017/9/data/5.html</a>   <a href=\"\nhttp://postimage.co.nr/2017/9/data/6.html\" rel=\"nofollow\" target=\"_NEW\">\nhttp://postimage.co.nr/2017/9/data/6.html</a>   <a href=\"\nhttp://postimage.co.nr/2017/9/data/7.html\" rel=\"nofollow\" target=\"_NEW\">\nhttp://postimage.co.nr/2017/9/data/7.html</a>   <a href=\"\nhttp://postimage.co.nr/2017/9/data/8.html\" rel=\"nofollow\" target=\"_NEW\">\nhttp://postimage.co.nr/2017/9/data/8.html</a>   <a href=\"\nhttp://postimage.co.nr/2017/9/data/9.html\" rel=\"nofollow\" target=\"_NEW\">\nhttp://postimage.co.nr/2017/9/data/9.html</a>   <a href=\"\nhttp://postimage.co.nr/2017/9/data/10.html\" rel=\"nofollow\" target=\"_NEW\">\nhttp://postimage.co.nr/2017/9/data/10.html</a>\r\n\r\nFile size                                : 699 MiB\r\nDuration                                 : 2 h 12 min\r\nOverall bit rate                         : 739 kb/s\r\nMovie name                               : Bhoomi 2017 Hindi Movies HD TS XviD Clean Audio AAC New Source &#x263B;rDX&#x263B;\r\n\r\nVideo\r\nID                                       : 1\r\nFormat                                   : AVC\r\nFormat/Info                              : Advanced Video Codec\r\nFormat profile                           : <a href=\"/cdn-cgi/l/email-protection\" class=\"__cf_email__\" data-cfemail=\"3179585659717d051f00\">[email&#xA0;protected]</a>\r\nFormat settings, CABAC                   : Yes\r\nFormat settings, ReFrames                : 4 frames\r\nCodec ID                                 : V_MPEG4/ISO/AVC\r\nDuration                                 : 2 h 12 min\r\nBit rate                                 : 659 kb/s\r\nWidth                                    : 640 pixels\r\nHeight                                   : 272 pixels\r\nDisplay aspect ratio                     : 2.35:1\r\nFrame rate mode                          : Constant\r\nFrame rate                               : 25.000 FPS\r\nColor space                              : YUV\r\nChroma subsampling                       : 4:2:0\r\nBit depth                                : 8 bits\r\nScan type                                : Progressive\r\nBits/(Pixel*Frame)                       : 0.151\r\nStream size                              : 609 MiB (87%)\r\nTitle                                    : &#x263B;rDX&#x263B;\r\nWriting library                          : XviD\r\n\r\nAudio\r\nID                                       : 2\r\nFormat                                   : MPEG Audio\r\nFormat version                           : Version 1\r\nFormat profile                           : Layer 3\r\nMode                                     : Joint stereo\r\nMode extension                           : MS Stereo\r\nCodec ID                                 : A_MPEG/L3\r\nCodec ID/Hint                            : MP3\r\nDuration                                 : 2 h 13 min\r\nBit rate mode                            : Constant\r\nBit rate                                 : 80.0 kb/s\r\nChannel(s)                               : 2 channels\r\nSampling rate                            : 32.0 kHz\r\nCompression mode                         : Lossy\r\nStream size                              : 76.4 MiB (11%)\r\nTitle                                    : &#x263B;rDX&#x263B;\r\nWriting library                          : LAME3.99r\r\nEncoding settings                        : -m j -V 4 -q 2 -lowpass 13.5 -b 80\r\nLanguage                                 : Hindi\r\nDefault                                  : Yes\r\nForced                                   : Yes","last_updated":"2017-09-24T12:11:40.166Z","parsed":{"xt":"urn:btih:30d4b49d472ae1a09563aa6653b6cea1c9796188","dn":"Bhoomi 2017 Hindi Movies HD TS XviD Clean Audio New  Sample ☻rDX","tr":["udp://exodus.desync.com:6969","udp://open.demonii.com:1337","udp://tracker.coppersurfer.tk:6969","udp://tracker.leechers-paradise.org:6969","udp://zer0day.ch:1337"],"infoHash":"30d4b49d472ae1a09563aa6653b6cea1c9796188","infoHashBuffer":{"type":"Buffer","data":[48,212,180,157,71,42,225,160,149,99,170,102,83,182,206,161,201,121,97,136]},"name":"Bhoomi 2017 Hindi Movies HD TS XviD Clean Audio New  Sample ☻rDX","announce":["udp://exodus.desync.com:6969","udp://open.demonii.com:1337","udp://tracker.coppersurfer.tk:6969","udp://tracker.leechers-paradise.org:6969","udp://zer0day.ch:1337"],"urlList":[]}}